<svg xmlns="http://www.w3.org/2000/svg" viewBox="0 0 330.1 74.16"><defs><style>.cls-1{font-size:34.68px;font-family:SBSansDisplay-Semibold, SB Sans Display;font-weight:600;letter-spacing:0.02em;}.cls-1,.cls-4{fill:#fff;}.cls-2{letter-spacing:0.02em;}.cls-3{letter-spacing:0em;}</style></defs><title>Asset 1</title><g id="Layer_2" data-name="Layer 2"><g id="Layer_1-2" data-name="Layer 1"><text class="cls-1" transform="translate(52.42 63.51)">УНИВЕРСИТ<tspan class="cls-2" x="232.98" y="0">Е</tspan><tspan class="cls-3" x="256.14" y="0">Т</tspan></text><polygon class="cls-4" points="117.34 12.06 122.82 8.02 104.49 8.02 104.49 32.27 122.82 32.27 122.82 28.23 109.72 28.23 109.72 22.02 120.89 22.02 120.89 17.99 109.72 17.99 109.72 12.06 117.34 12.06"/><path class="cls-4" d="M90.65,17.47H84.29V12.06H94.45l5.48-4H79.06V32.27H90c6.13,0,9.64-2.78,9.64-7.62,0-4.63-3.18-7.18-9-7.18m-.91,10.76H84.29V21.51h5.45c3.32,0,4.87,1.12,4.87,3.36S93,28.23,89.74,28.23"/><path class="cls-4" d="M137.67,8h-10V32.27h5.23V25.4h4.75C144,25.4,148,22.05,148,16.7S144,8,137.67,8m-.11,13.34h-4.64v-9.3h4.64c3.35,0,5.2,1.65,5.2,4.65s-1.85,4.65-5.2,4.65"/><path class="cls-4" d="M70.08,27a9.38,9.38,0,0,1-4.52,1.13,7.81,7.81,0,0,1-8.14-8,7.81,7.81,0,0,1,8.14-8,8,8,0,0,1,4.76,1.49l3.75-2.77-.25-.21a12.53,12.53,0,0,0-8.46-2.94,13.38,13.38,0,0,0-9.28,3.44A12,12,0,0,0,52.41,20a12.41,12.41,0,0,0,3.66,9,13.1,13.1,0,0,0,9.26,3.59,12.46,12.46,0,0,0,9.29-3.71l-3.38-2.5Z"/><path class="cls-4" d="M0,20.15a20.15,20.15,0,0,0,40.29,0A20.37,20.37,0,0,0,40,16.54l-4.34,3.19c0,.14,0,.28,0,.42A15.52,15.52,0,1,1,28.88,7.36L32.8,4.47A20.15,20.15,0,0,0,0,20.15"/><path class="cls-4" d="M36.09,7.83a20.25,20.25,0,0,1,2.41,4L20.15,25.36l-7.67-4.81V14.77l7.67,4.81Z"/></g></g></svg>