<svg xmlns="http://www.w3.org/2000/svg" viewBox="0 0 49.55 93.43"><defs><style>.cls-1{fill:#fff;}</style></defs><title>Asset 3</title><g id="Layer_2" data-name="Layer 2"><g id="Layer_1-2" data-name="Layer 1"><path class="cls-1" d="M6.08,37.23c.21,0,.42,0,.62,0a19.11,19.11,0,0,0,9.08,8A6.74,6.74,0,0,0,29,47h0c.39-.06.78-.14,1.16-.22h0c.76-.17,1.51-.38,2.24-.62l.09,0,1-.35.14-.06a21.4,21.4,0,0,0,2-.94l.22-.12c.25-.13.5-.28.74-.42l.25-.15c.3-.19.61-.38.91-.59h0a5.53,5.53,0,0,0,7.25-8.33c.09-.18.18-.36.26-.54l0,0c.08-.18.16-.35.23-.53l0-.07c.08-.17.15-.35.22-.52l0-.07.2-.54,0,0a23.53,23.53,0,0,0,.69-2.31s0-.05,0-.08.06-.29.1-.43,0-.15,0-.23.05-.25.08-.38a2.74,2.74,0,0,1,0-.28l.06-.36c0-.1,0-.21,0-.31s0-.22,0-.34,0-.23,0-.34l0-.31,0-.38c0-.1,0-.19,0-.29s0-.29,0-.43,0-.16,0-.24,0-.45,0-.67,0-.64,0-.95c0-.07,0-.14,0-.2,0-.32,0-.64-.07-1h0a4.38,4.38,0,0,0-2-8.3l-.48,0s0,0,0-.06A22.06,22.06,0,0,0,32,4.37h-.06a4.92,4.92,0,0,0-9.61-.86A21.68,21.68,0,0,0,12.16,7.63,5.38,5.38,0,1,0,5.35,16c-.08.16-.15.33-.23.49l0,.09c-.07.16-.14.31-.2.47a.61.61,0,0,0,0,.12l-.18.45a.78.78,0,0,0,0,.14l-.17.45c0,.05,0,.09,0,.13s-.11.31-.15.47a.42.42,0,0,0,0,.1c-.16.53-.31,1.07-.43,1.61v.06l-.09.39a2,2,0,0,1-.05.24l-.06.35c0,.09,0,.19,0,.29s0,.21,0,.32,0,.21,0,.32a2.91,2.91,0,0,0,0,.31c0,.11,0,.22,0,.34l0,.29,0,.37a2.28,2.28,0,0,1,0,.26c0,.14,0,.28,0,.42v.22c0,.22,0,.43,0,.65s0,.32,0,.48A6.07,6.07,0,0,0,6.08,37.23Zm-1.17-12h0c0-.74,0-1.45.11-2.16H5l.06-.49v-.05L5.15,22V22c0-.16.06-.31.08-.46l0-.07L5.35,21v-.06c0-.16.07-.31.11-.47l0-.06c0-.15.08-.31.12-.46v-.06l.14-.47,0-.05.15-.48,0,0c0-.16.11-.32.17-.49v0c.06-.16.13-.33.19-.5v0l.21-.51h0c.07-.17.15-.35.23-.52h0l.14.05h0c0,.13,0,.26,0,.4s0,.36,0,.54,0,.13,0,.2,0,.24,0,.35l0,.25,0,.31c0,.09,0,.18,0,.27s0,.2,0,.29,0,.2,0,.3a2.56,2.56,0,0,1,.05.27c0,.1,0,.21.07.31l.06.26c0,.11,0,.22.08.33l.06.24c0,.12.06.24.1.36l.06.2.12.39,0,.17.15.43a.42.42,0,0,0,0,.1,24.09,24.09,0,0,0,1.54,3.39,6.09,6.09,0,0,0-3.44-1.07A6.45,6.45,0,0,0,4.91,25.19Zm9.88,1.32c0,.07,0,.14,0,.21,0,.49-.06,1-.07,1.46a4,4,0,0,0-2.19,1.05c-.29-.38-.56-.76-.82-1.15a.61.61,0,0,1-.07-.1l-.32-.48c-.13-.2-.25-.4-.37-.6,1.18-.63,2.52-1.27,4-1.92C14.87,25.5,14.82,26,14.79,26.51ZM8.41,36.76a6.11,6.11,0,0,0,3.15-3,4,4,0,0,0,3.65,2.43h0c.08.5.18,1,.29,1.45v0l.15.65,0,.06.18.65h0a18.62,18.62,0,0,0,.64,1.87l0,0c.07.19.15.38.23.56a7,7,0,0,0-.8,2A17.74,17.74,0,0,1,8.41,36.76Zm7.28-10.59c0-.16,0-.31,0-.47,0-.37.07-.74.12-1.12l.89-.37.4-.16.5-.21.53-.2.39-.16.62-.24.31-.11.71-.26.22-.09.79-.28.16-.06.86-.3.09,0,.94-.31a7.14,7.14,0,0,0-3.32,6,7.36,7.36,0,0,0,.57,2.82L19.13,31a4,4,0,0,0-3.56-2.87c0-.47,0-.94.08-1.42C15.67,26.54,15.68,26.36,15.69,26.17ZM16,23.12l0-.22.15-.94s0-.08,0-.12c.05-.28.1-.56.16-.84a1.06,1.06,0,0,1,0-.19c.06-.31.12-.61.19-.91l0-.16c.06-.27.13-.54.19-.8,0-.05,0-.1,0-.15.07-.29.15-.58.22-.86a1.21,1.21,0,0,0,.05-.18l.24-.81,0-.06c.08-.28.17-.56.26-.84l.06-.17c.18-.55.37-1.09.58-1.61l.05-.15c.11-.26.21-.52.31-.77l0-.06c.1-.24.21-.47.31-.7l.05-.11c.11-.24.22-.48.34-.71l.05-.1c.1-.21.21-.43.33-.64l0-.06.36-.65.06-.11c.12-.21.25-.41.38-.61A27.26,27.26,0,0,1,28.4,13a7.35,7.35,0,0,0-.19,6.83l-2.07.6-.07,0-.94.29-.15.05-1.08.34c-2.88.94-5.58,1.94-8,3C15.94,23.77,16,23.44,16,23.12Zm23.34-.74A7.27,7.27,0,0,0,41,20.65a4.38,4.38,0,0,0,.9,1.59l-.44.27-.07,0-.64.38-.72.4c-.2-.31-.39-.61-.6-.92Zm-.69.48c.19.29.38.58.56.87-1.27.66-2.71,1.34-4.28,2q.06-.45.09-.9c0-.3,0-.6.07-.89A7.23,7.23,0,0,0,38.69,22.86Zm-4.43,1.07L34.17,25h0c0,.35-.07.7-.11,1.05A7.12,7.12,0,0,0,33,23.73a7.48,7.48,0,0,0,1.27.2ZM33,32h0c-.06.25-.13.49-.19.74l-.12.4c0,.15-.09.3-.13.45s-.07.25-.11.37-.15.48-.23.71l-.12.34c-.05.16-.11.32-.16.47l-.12.32c-.08.24-.17.47-.26.69s-.07.18-.11.27-.13.33-.2.5a2,2,0,0,0-.11.26c-.1.23-.2.45-.31.67a1.3,1.3,0,0,1-.08.17c-.08.18-.17.36-.26.54a1.86,1.86,0,0,1-.1.2c-.11.22-.22.44-.34.64l0,.08c-.11.19-.21.38-.32.56l-.09.17-.37.59c-.49-.13-1-.29-1.49-.46a6.72,6.72,0,0,0-5.15-2.43c-.36-.21-.73-.44-1.09-.68l-.11-.07c-.35-.23-.71-.47-1.06-.72h0c-.36-.25-.72-.52-1.08-.79a.39.39,0,0,0-.1-.08c-.35-.27-.7-.55-1-.84a4,4,0,0,0,1.22-2.89,3.64,3.64,0,0,0-.07-.74l1.48-.39A7.17,7.17,0,0,0,33,32Zm2.46,10.94-.19.1-.68.38-.06,0c-.25.13-.51.26-.77.37l-.13.06-.74.32h0c-.28.11-.55.21-.83.3l-.05,0-.84.26h0c-.59.16-1.2.31-1.82.43,0-.07,0-.15,0-.22A6.66,6.66,0,0,0,29,43h0l.3-.4.33-.47a18.09,18.09,0,0,0,4.31.56,13.79,13.79,0,0,0,2.26-.18Zm-6.73-1.06-.11.15-.11-.21ZM26.82,20.67l1.6-.45h0c.13.22.27.45.42.66a7,7,0,0,0-1.72-.21Zm-9.47,20-.12-.32L17.1,40,17,39.68c-.07-.2-.13-.4-.19-.61s-.07-.22-.1-.33-.08-.29-.12-.45L16.48,38c-.05-.22-.11-.46-.16-.69s-.05-.22-.07-.33-.08-.37-.11-.55l-.06-.28a4.06,4.06,0,0,0,1.31-.53l.86.71.22.17.66.5.25.19.7.5.18.12c.3.21.6.41.91.6A6.71,6.71,0,0,0,17.35,40.68Zm18.16-1.61a5.54,5.54,0,0,0,.63,2.56l-.5.08-.08,0-.46.05-.22,0-.36,0-.62,0a17,17,0,0,1-3.82-.47,37.47,37.47,0,0,0,4.81-14.85l0-.29c1.68-.71,3.21-1.43,4.55-2.13a19,19,0,0,1,3.1,9.58v.06a5.81,5.81,0,0,0-1.52-.21A5.54,5.54,0,0,0,35.51,39.07Zm9.65-15.33.38,0c0,.25,0,.49.05.72s0,.6,0,.89,0,.4,0,.6,0,.15,0,.22,0,.24,0,.36a2.64,2.64,0,0,1,0,.28,2.83,2.83,0,0,1,0,.29l0,.32,0,.25c0,.11,0,.22,0,.34l0,.21-.06.36,0,.2c0,.12-.05.25-.07.37s0,.12,0,.18-.05.26-.08.39a.83.83,0,0,0,0,.15c0,.13-.07.27-.1.41s0,.08,0,.13l-.12.42,0,.11c0,.15-.09.3-.14.45l0,.09c0,.15-.1.31-.16.46l0,.07-.18.48,0,.06c-.07.16-.13.33-.2.49l0,0-.21.51v0l-.24.54h0l-.15-.07c0-.13,0-.25,0-.38a19.93,19.93,0,0,0-3.2-10l.84-.47.18-.11.93-.56A4.4,4.4,0,0,0,45.16,23.74ZM31.82,6a20.4,20.4,0,0,1,11.27,9.45,4.6,4.6,0,0,0-.91.66,7.37,7.37,0,0,0-7.35-6.92,7,7,0,0,0-1.53.16,13.28,13.28,0,0,0-1.61-2.9C31.74,6.34,31.78,6.19,31.82,6ZM27,9.84a4.9,4.9,0,0,0,4.24-2.43,13.08,13.08,0,0,1,1.18,2.21,7.33,7.33,0,0,0-3.59,2.67,29,29,0,0,0-7.75-3.45c.23-.33.46-.64.7-.94l.06-.08.28-.33.09-.1c.11-.12.22-.25.34-.37h0A4.91,4.91,0,0,0,27,9.84ZM22.12,5.19a5.92,5.92,0,0,0,.14.94v0c-.17.16-.33.33-.49.5l-.08.08-.47.55,0,.06c-.34.41-.66.85-1,1.32h0a17.47,17.47,0,0,0-3.78-.43,13.43,13.43,0,0,0-2.5.23A20.12,20.12,0,0,1,22.12,5.19ZM14,11.69a5.39,5.39,0,0,0-.52-2.3A11.36,11.36,0,0,1,16.42,9a16.76,16.76,0,0,1,3.29.35h0a27.31,27.31,0,0,0-1.57,3h0c-.12.26-.24.54-.35.81v0c-.12.28-.23.56-.34.85v0l-.3.83,0,.07c-.1.29-.2.58-.29.88l0,0c-.09.27-.17.55-.25.83a.5.5,0,0,0,0,.13c-.09.29-.18.59-.26.9v.06c-.08.27-.15.55-.22.84,0,.06,0,.12,0,.18-.08.3-.15.61-.22.92v.07l-.18.85c0,.08,0,.15,0,.23-.06.31-.12.62-.17.94v.05l-.15.9,0,.25c-.05.32-.1.64-.14,1,0,.15,0,.29,0,.44-1.57.69-3,1.37-4.26,2a19.05,19.05,0,0,1-3-9.34,1.34,1.34,0,0,1,0-.2,5.05,5.05,0,0,0,.88.08A5.37,5.37,0,0,0,14,11.69ZM42.5,61H37.56V75.92h5a6.76,6.76,0,0,0,5.1-2.07,7.74,7.74,0,0,0,1.89-5.39,7.86,7.86,0,0,0-1.74-5.22A6.7,6.7,0,0,0,42.5,61Zm4.21,11.84a5.33,5.33,0,0,1-4.21,1.71H38.89V62.37H42.5A5.39,5.39,0,0,1,46.69,64a6.63,6.63,0,0,1,1.49,4.43A6.84,6.84,0,0,1,46.71,72.88Zm2.8-13.54H0v-.19H49.51ZM35.24,75.92V64.06l-5.46,9.11h-.84l-5.45-9.11V75.92H22.16V61h1.05l6.15,10.28L35.52,61h1V75.92Zm-25.16,0H0V61H10.08v1.33H1.33v5.29H8.85V69H1.33v5.6h8.75Zm2.33-13.55v5.27h7.52V69H12.41v7H11.08V61H21.16v1.33ZM0,77.62H49.51v.19H0ZM0,93.24H49.51v.19H0ZM.75,81.4a2.78,2.78,0,0,0-.1.76,2.6,2.6,0,0,0,.11.74,1.92,1.92,0,0,0,.32.62A1.66,1.66,0,0,0,1.6,84a1.53,1.53,0,0,0,.72.16A1.79,1.79,0,0,0,3,84a1.48,1.48,0,0,0,.5-.34,1.44,1.44,0,0,0,.3-.51,1.58,1.58,0,0,0,.09-.62H2.33V82H4.47v2.57H4.06l-.17-.61a1.58,1.58,0,0,1-.71.55,2.16,2.16,0,0,1-.86.17,2.3,2.3,0,0,1-1-.2,2.21,2.21,0,0,1-.73-.54,2.16,2.16,0,0,1-.46-.79A2.62,2.62,0,0,1,0,82.2a3.4,3.4,0,0,1,.15-1,2.39,2.39,0,0,1,.43-.84,2.31,2.31,0,0,1,.73-.58,2.31,2.31,0,0,1,1-.21,3,3,0,0,1,.75.09,1.82,1.82,0,0,1,.63.29,1.73,1.73,0,0,1,.47.5,2,2,0,0,1,.25.74H3.77a1.42,1.42,0,0,0-.17-.49,1.29,1.29,0,0,0-.33-.33,1.4,1.4,0,0,0-.43-.19,1.72,1.72,0,0,0-.52-.07,1.53,1.53,0,0,0-.76.18,1.67,1.67,0,0,0-.52.47A2,2,0,0,0,.75,81.4Zm9.86-1.74V84H13.2v.54H10V79.66Zm11.51.67a2.16,2.16,0,0,0-.73-.57,2.38,2.38,0,0,0-1-.21,2.32,2.32,0,0,0-1,.21,2.06,2.06,0,0,0-.73.57,2.13,2.13,0,0,0-.44.81,3.11,3.11,0,0,0-.15,1,3,3,0,0,0,.15,1,2.24,2.24,0,0,0,.44.82,2,2,0,0,0,.73.56,2.32,2.32,0,0,0,1,.21,2.38,2.38,0,0,0,1-.21,2.13,2.13,0,0,0,.73-.56,2.59,2.59,0,0,0,.44-.82,3,3,0,0,0,.14-1,3.1,3.1,0,0,0-.14-1A2.44,2.44,0,0,0,22.12,80.33ZM22,82.83a1.93,1.93,0,0,1-.3.65,1.58,1.58,0,0,1-.53.46,1.64,1.64,0,0,1-.76.17,1.68,1.68,0,0,1-.77-.17,1.54,1.54,0,0,1-.52-.46,2.17,2.17,0,0,1-.31-.65,3,3,0,0,1-.09-.73,3,3,0,0,1,.09-.73,2.11,2.11,0,0,1,.31-.64,1.44,1.44,0,0,1,.52-.46,1.57,1.57,0,0,1,.77-.18,1.53,1.53,0,0,1,.76.18,1.48,1.48,0,0,1,.53.46,1.88,1.88,0,0,1,.3.64,3.06,3.06,0,0,1,.1.73A3,3,0,0,1,22,82.83Zm9.52-1.3a1.15,1.15,0,0,0,.19-.67,1,1,0,0,0-.17-.62,1.27,1.27,0,0,0-.4-.4.72.72,0,0,0-.27-.1l-.33,0-.36,0H28v4.88h2.35a1.59,1.59,0,0,0,.64-.12,1.43,1.43,0,0,0,.47-.31,1.31,1.31,0,0,0,.28-.45,1.55,1.55,0,0,0,.1-.52,1.21,1.21,0,0,0-.24-.76A1.11,1.11,0,0,0,31,82v0A1.07,1.07,0,0,0,31.48,81.53Zm-.34,1.19a.94.94,0,0,1-.16,1,.9.9,0,0,1-.67.24H28.68V82.31h1.49a1.67,1.67,0,0,1,.39,0,.78.78,0,0,1,.34.13A.69.69,0,0,1,31.14,82.72Zm-.36-1.15a1.29,1.29,0,0,1-.8.19h-1.3V80.21H30l.4,0a.8.8,0,0,1,.33.11.51.51,0,0,1,.23.23A.93.93,0,0,1,31,81,.72.72,0,0,1,30.78,81.57Zm7.8-1.91-1.9,4.88h.66l.55-1.47H40l.54,1.47h.72L39.3,79.66Zm-.48,2.87.82-2.28h0l.81,2.28Zm8.77-2.87V84h2.59v.54H46.22V79.66ZM.62,91.38H0V86.5H.69l2.57,4h0v-4h.62v4.88H3.18L.63,87.46h0Zm7-4.88H11V87H8.29V88.6h2.54v.54H8.29v1.69H11v.55H7.64Zm8,4.88V87H14V86.5h3.9V87H16.27v4.34Zm6.7-.82,1.1-4.06h.7l1.08,4.06h0l1-4.06h.65l-1.3,4.88h-.68l-1.11-4.1h0l-1.12,4.1h-.68L20.69,86.5h.66l1,4.06Zm8.16-3.4A2.59,2.59,0,0,0,30,88a3,3,0,0,0-.15,1,3.11,3.11,0,0,0,.15,1,2.44,2.44,0,0,0,.44.81,2.16,2.16,0,0,0,.73.57,2.35,2.35,0,0,0,1,.21,2.32,2.32,0,0,0,1-.21,2.06,2.06,0,0,0,.73-.57,2.27,2.27,0,0,0,.44-.81,3.11,3.11,0,0,0,.15-1,3,3,0,0,0-.15-1,2.4,2.4,0,0,0-.44-.82,2.06,2.06,0,0,0-.73-.57,2.32,2.32,0,0,0-1-.21,2.35,2.35,0,0,0-1,.21A2.16,2.16,0,0,0,30.48,87.16Zm1.75-.23a1.68,1.68,0,0,1,.77.17,1.54,1.54,0,0,1,.52.46,1.84,1.84,0,0,1,.3.65,2.57,2.57,0,0,1,.1.73,2.62,2.62,0,0,1-.1.73,1.88,1.88,0,0,1-.3.64,1.44,1.44,0,0,1-.52.46,1.57,1.57,0,0,1-.77.18,1.53,1.53,0,0,1-.76-.18,1.48,1.48,0,0,1-.53-.46,1.88,1.88,0,0,1-.3-.64,3.06,3.06,0,0,1-.1-.73,3,3,0,0,1,.1-.73,1.84,1.84,0,0,1,.3-.65,1.58,1.58,0,0,1,.53-.46A1.64,1.64,0,0,1,32.23,86.93Zm9.41,1.62a1.5,1.5,0,0,0,.2-.77,1.19,1.19,0,0,0-.39-.94,1.6,1.6,0,0,0-1.09-.34h-2.3v4.88h.65V89.29H40.3a1,1,0,0,1,.38.07.74.74,0,0,1,.23.2.8.8,0,0,1,.13.28,3.2,3.2,0,0,1,.07.33,2.21,2.21,0,0,1,0,.37c0,.12,0,.23,0,.34a2,2,0,0,0,0,.29.34.34,0,0,0,.09.21H42a.73.73,0,0,1-.15-.29,1.77,1.77,0,0,1-.08-.33,2.22,2.22,0,0,1,0-.37c0-.12,0-.24,0-.36l-.06-.34a1.34,1.34,0,0,0-.12-.3.76.76,0,0,0-.21-.23A.85.85,0,0,0,41,89v0A1,1,0,0,0,41.64,88.55Zm-.79,0a1,1,0,0,1-.36.13,2.86,2.86,0,0,1-.43,0H38.71V87h1.61a.84.84,0,0,1,.67.24,1,1,0,0,1,.11,1A.72.72,0,0,1,40.85,88.58Zm5.24-2.08v2.43l2.48-2.43h.84l-2.06,2,2.14,2.91h-.82l-1.76-2.47-.82.76v1.71h-.65V86.5Z"/></g></g></svg>